<svg xmlns="http://www.w3.org/2000/svg" version="1.0" width="432.000000pt" height="432.000000pt" viewBox="0 0 432.000000 432.000000" preserveAspectRatio="xMidYMid meet">

<g transform="translate(0.000000,432.000000) scale(0.100000,-0.100000)" fill="#ffffff" stroke="none">
<path d="M2025 3544 c-52 -6 -246 -44 -257 -50 -4 -3 -8 -277 -8 -608 l0 -604 37 -7 c51 -9 712 -4 741 7 l23 8 -3 594 c-2 380 -7 599 -13 605 -33 32 -384 69 -520 55z" fill="#ffffff"/>
<path d="M1391 3320 c-323 -219 -530 -531 -608 -916 -26 -129 -24 -393 4 -529 56 -273 186 -510 387 -710 106 -106 265 -225 300 -225 15 0 16 109 16 1215 0 972 -3 1215 -13 1215 -7 0 -45 -22 -86 -50z" fill="#ffffff"/>
<path d="M2830 3349 c-2 -238 1 -2413 3 -2416 11 -10 207 131 292 211 84 80 202 237 267 356 45 84 99 230 126 343 23 100 26 132 26 302 1 140 -4 211 -16 271 -78 373 -285 685 -596 895 -93 64 -102 67 -102 38z" fill="#ffffff"/>
<path d="M1760 1425 l0 -614 41 -11 c186 -50 435 -58 618 -21 57 12 113 26 123 32 17 9 18 37 18 588 0 318 -3 593 -6 610 l-6 31 -394 0 -394 0 0 -615z" fill="#ffffff"/>
</g>
</svg>