<?xml version="1.0" standalone="no"?>
<!DOCTYPE svg PUBLIC "-//W3C//DTD SVG 20010904//EN"
 "http://www.w3.org/TR/2001/REC-SVG-20010904/DTD/svg10.dtd">
<svg version="1.0" xmlns="http://www.w3.org/2000/svg"
 width="500.000000pt" height="500.000000pt" viewBox="0 0 500.000000 500.000000"
 preserveAspectRatio="xMidYMid meet">

<g transform="translate(0.000000,500.000000) scale(0.100000,-0.100000)"
fill="#000000" stroke="none">
<path d="M0 2500 l0 -2500 2500 0 2500 0 0 2500 0 2500 -2500 0 -2500 0 0
-2500z m2670 1226 c47 -8 105 -19 129 -26 41 -11 43 -13 37 -42 -3 -17 -6
-266 -6 -554 l0 -524 -360 0 -360 0 0 554 0 554 36 12 c115 38 372 51 524 26z
m-815 -2364 c-12 -12 -191 123 -280 212 -183 184 -296 391 -351 646 -26 119
-26 381 0 500 72 334 273 632 548 813 l83 54 3 -1110 c1 -611 0 -1112 -3
-1115z m1329 2160 c95 -63 271 -239 336 -336 262 -393 292 -886 78 -1297 -97
-188 -250 -360 -422 -474 -46 -30 -86 -55 -90 -55 -3 0 -6 500 -6 1111 0 1018
1 1111 16 1105 9 -3 48 -28 88 -54z m-351 -1713 l2 -557 -65 -16 c-200 -48
-400 -48 -600 0 l-65 16 3 559 2 559 361 -2 360 -3 2 -556z"/>
</g>
</svg>
